<?xml version="1.0" standalone="no"?>
<!DOCTYPE svg PUBLIC "-//W3C//DTD SVG 20010904//EN"
 "http://www.w3.org/TR/2001/REC-SVG-20010904/DTD/svg10.dtd">
<svg version="1.0" xmlns="http://www.w3.org/2000/svg"
 width="262.000000pt" height="87.000000pt" viewBox="0 0 262.000000 87.000000"
 preserveAspectRatio="xMidYMid meet">

<g transform="translate(0.000000,87.000000) scale(0.100000,-0.100000)"
fill="#000000" stroke="none">
<path d="M170 440 l0 -240 55 0 c53 0 55 1 55 27 l0 26 24 -22 c51 -48 152
-36 205 24 77 88 56 246 -39 296 -48 26 -120 25 -154 -2 l-26 -20 0 75 0 76
-60 0 -60 0 0 -240z m260 10 c33 -33 30 -95 -6 -127 -29 -27 -54 -29 -93 -8
-33 16 -41 33 -41 80 0 64 94 101 140 55z"/>
<path d="M1084 556 c-50 -22 -74 -55 -74 -99 0 -56 39 -92 118 -107 33 -7 63
-18 66 -26 9 -22 -24 -46 -53 -39 -38 9 -111 54 -112 68 0 7 -9 -12 -20 -41
-25 -64 -19 -75 54 -97 67 -20 133 -19 182 4 51 23 66 41 72 89 7 55 -24 88
-112 117 -84 27 -102 55 -35 55 23 0 51 -5 62 -11 18 -9 26 -6 56 24 l35 35
-34 18 c-45 23 -164 29 -205 10z"/>
<path d="M600 445 c0 -86 4 -113 20 -144 68 -134 257 -132 327 3 11 21 18 66
21 139 l5 107 -57 0 -56 0 0 -99 c0 -84 -3 -102 -21 -125 -27 -34 -79 -36
-109 -4 -17 19 -20 35 -20 125 l0 103 -55 0 -55 0 0 -105z"/>
<path d="M1601 452 c-99 -50 -105 -183 -10 -234 38 -21 82 -23 128 -7 35 12
39 28 13 53 -13 11 -28 14 -51 10 -41 -9 -71 17 -71 61 0 46 32 73 70 58 25
-9 31 -8 49 11 28 30 27 35 -14 52 -45 18 -73 18 -114 -4z"/>
<path d="M1835 456 c-48 -21 -68 -51 -72 -109 -3 -40 1 -60 17 -85 50 -81 182
-79 236 3 22 34 20 112 -3 144 -40 54 -116 74 -178 47z m103 -78 c17 -17 15
-73 -3 -88 -22 -18 -66 -15 -82 6 -16 22 -17 66 -1 82 7 7 26 12 43 12 17 0
36 -5 43 -12z"/>
<path d="M2168 456 c-16 -8 -28 -11 -28 -5 0 5 -18 9 -40 9 l-40 0 0 -130 0
-130 40 0 40 0 0 78 c0 83 9 102 46 102 27 0 34 -23 34 -113 l0 -68 38 3 37 3
5 85 5 85 30 0 30 0 5 -85 5 -85 38 -3 39 -3 -4 111 c-3 109 -4 112 -32 137
-23 20 -37 24 -64 19 -19 -3 -42 -12 -51 -20 -15 -14 -19 -14 -32 -1 -22 22
-70 28 -101 11z"/>
<path d="M1376 298 c-20 -29 -20 -41 2 -68 36 -44 102 -20 102 36 0 52 -74 75
-104 32z"/>
</g>
</svg>
